<svg id="Capa_1" data-name="Capa 1" xmlns="http://www.w3.org/2000/svg" xmlns:xlink="http://www.w3.org/1999/xlink" viewBox="0 0 1000 1000"><defs><style>.cls-1{fill:#e94e1b;stroke-miterlimit:10;stroke:url(#Degradado_sin_nombre);}.cls-2,.cls-3,.cls-4{fill:#fff;}.cls-3{opacity:0.8;}.cls-4{font-size:170.2px;font-family:Cocogoose;}</style><linearGradient id="Degradado_sin_nombre" x1="-0.5" y1="500" x2="1000.5" y2="500" gradientUnits="userSpaceOnUse"><stop offset="0" stop-color="#fff"/><stop offset="1"/></linearGradient></defs><title>Mesa de trabajo 1</title><rect class="cls-1" width="1000" height="1000"/><path class="cls-2" d="M548.76,319a198.55,198.55,0,0,1,165.32,88.42c.47-5.27.72-10.6.72-16A176.71,176.71,0,0,0,592.5,223.28a71.54,71.54,0,1,0-108.68,0A176.83,176.83,0,0,0,367.34,436.49,198.77,198.77,0,0,1,548.76,319Z"/><path class="cls-3" d="M479.33,474A198.52,198.52,0,0,1,314,385.6c-.47,5.28-.73,10.61-.73,16A176.71,176.71,0,0,0,435.59,569.72a71.55,71.55,0,1,0,108.67,0A176.83,176.83,0,0,0,660.75,356.51,198.77,198.77,0,0,1,479.33,474Z"/><text class="cls-4" transform="translate(139.04 846.51)">Sangha</text></svg>